<svg width="1200" height="630" viewBox="0 0 1200 630" fill="none" xmlns="http://www.w3.org/2000/svg">
  <rect width="1200" height="630" rx="28" fill="#0C1117"/>
  <rect x="34" y="34" width="1132" height="562" rx="24" fill="url(#bg)"/>
  <circle cx="1030" cy="124" r="160" fill="#143F36" opacity="0.35"/>
  <circle cx="912" cy="500" r="180" fill="#0E2C50" opacity="0.38"/>
  <rect x="76" y="92" width="154" height="38" rx="19" fill="#E8FFF6"/>
  <text x="98" y="117" fill="#0B7A57" font-family="Segoe UI, Arial, sans-serif" font-size="20" font-weight="700">mizan23</text>
  <text x="76" y="205" fill="white" font-family="Segoe UI, Arial, sans-serif" font-size="56" font-weight="800">Market Intelligence</text>
  <text x="76" y="270" fill="white" font-family="Segoe UI, Arial, sans-serif" font-size="56" font-weight="800">&amp; Portfolio Decisions</text>
  <text x="76" y="335" fill="#B8C2CC" font-family="Segoe UI, Arial, sans-serif" font-size="28">BIST, US, crypto, commodities, funds, outcomes,</text>
  <text x="76" y="375" fill="#B8C2CC" font-family="Segoe UI, Arial, sans-serif" font-size="28">favorites, target planning, and probability-aware signals.</text>
  <rect x="76" y="440" width="248" height="58" rx="18" fill="#15A46F"/>
  <text x="120" y="477" fill="white" font-family="Segoe UI, Arial, sans-serif" font-size="24" font-weight="700">Local-first platform</text>
  <rect x="350" y="440" width="224" height="58" rx="18" fill="#16202B"/>
  <text x="394" y="477" fill="#DCE6EF" font-family="Segoe UI, Arial, sans-serif" font-size="24" font-weight="700">FastAPI + Next.js</text>
  <rect x="726" y="124" width="344" height="130" rx="24" fill="#101A24" stroke="#274054"/>
  <text x="756" y="166" fill="#EAF2F8" font-family="Segoe UI, Arial, sans-serif" font-size="24" font-weight="700">Scoring</text>
  <text x="756" y="202" fill="#9CB0C1" font-family="Segoe UI, Arial, sans-serif" font-size="22">Trend, alpha, liquidity,</text>
  <text x="756" y="232" fill="#9CB0C1" font-family="Segoe UI, Arial, sans-serif" font-size="22">quality, opportunities</text>
  <rect x="746" y="286" width="324" height="130" rx="24" fill="#101A24" stroke="#274054"/>
  <text x="776" y="328" fill="#EAF2F8" font-family="Segoe UI, Arial, sans-serif" font-size="24" font-weight="700">Probability</text>
  <text x="776" y="364" fill="#9CB0C1" font-family="Segoe UI, Arial, sans-serif" font-size="22">Expected return,</text>
  <text x="776" y="394" fill="#9CB0C1" font-family="Segoe UI, Arial, sans-serif" font-size="22">outperform, risk forecast</text>
  <rect x="766" y="448" width="304" height="110" rx="24" fill="#101A24" stroke="#274054"/>
  <text x="796" y="490" fill="#EAF2F8" font-family="Segoe UI, Arial, sans-serif" font-size="24" font-weight="700">Outcome Reports</text>
  <text x="796" y="526" fill="#9CB0C1" font-family="Segoe UI, Arial, sans-serif" font-size="22">Validation, watchlists,</text>
  <text x="796" y="554" fill="#9CB0C1" font-family="Segoe UI, Arial, sans-serif" font-size="22">portfolio intelligence</text>
  <defs>
    <linearGradient id="bg" x1="34" y1="34" x2="1166" y2="596" gradientUnits="userSpaceOnUse">
      <stop stop-color="#0F1722"/>
      <stop offset="1" stop-color="#111C28"/>
    </linearGradient>
  </defs>
</svg>
